<mxfile host="app.diagrams.net" modified="2024-09-14T06:36:44.690Z" agent="Mozilla/5.0 (Windows NT 10.0; Win64; x64; rv:130.0) Gecko/20100101 Firefox/130.0" etag="m2tEMaUShgodHAABUBj1" version="24.6.0" type="device">
  <diagram name="Page-1" id="zIrL0NN2fEZZAu_lPKWN">
    <mxGraphModel dx="1313" dy="611" grid="1" gridSize="10" guides="1" tooltips="1" connect="1" arrows="1" fold="1" page="1" pageScale="1" pageWidth="850" pageHeight="1100" math="0" shadow="0">
      <root>
        <mxCell id="0" />
        <mxCell id="1" parent="0" />
        <mxCell id="1C_koSMxwwufAkrPEQZf-1" value="&lt;div&gt;&lt;font color=&quot;#6600cc&quot;&gt;expense&lt;/font&gt;&lt;/div&gt;&lt;div&gt;&lt;font color=&quot;#6600cc&quot;&gt;&lt;br&gt;&lt;/font&gt;&lt;/div&gt;" style="points=[[0,0],[0.25,0],[0.5,0],[0.75,0],[1,0],[1,0.25],[1,0.5],[1,0.75],[1,1],[0.75,1],[0.5,1],[0.25,1],[0,1],[0,0.75],[0,0.5],[0,0.25]];outlineConnect=0;gradientColor=none;html=1;whiteSpace=wrap;fontSize=12;fontStyle=0;container=1;pointerEvents=0;collapsible=0;recursiveResize=0;shape=mxgraph.aws4.group;grIcon=mxgraph.aws4.group_vpc2;strokeColor=#8C4FFF;fillColor=none;verticalAlign=top;align=left;spacingLeft=30;fontColor=#AAB7B8;dashed=0;" vertex="1" parent="1">
          <mxGeometry x="130" y="80" width="670" height="510" as="geometry" />
        </mxCell>
        <mxCell id="1C_koSMxwwufAkrPEQZf-3" value="" style="rounded=1;arcSize=10;dashed=1;strokeColor=#F19C99;fillColor=none;gradientColor=none;dashPattern=8 4;strokeWidth=2;" vertex="1" parent="1C_koSMxwwufAkrPEQZf-1">
          <mxGeometry x="40" y="60" width="590" height="130" as="geometry" />
        </mxCell>
        <mxCell id="1C_koSMxwwufAkrPEQZf-5" value="" style="rounded=1;arcSize=10;dashed=1;strokeColor=#7EA6E0;fillColor=none;gradientColor=none;dashPattern=8 4;strokeWidth=2;" vertex="1" parent="1C_koSMxwwufAkrPEQZf-1">
          <mxGeometry x="40" y="300" width="590" height="140" as="geometry" />
        </mxCell>
        <mxCell id="1C_koSMxwwufAkrPEQZf-8" value="Public subnet" style="points=[[0,0],[0.25,0],[0.5,0],[0.75,0],[1,0],[1,0.25],[1,0.5],[1,0.75],[1,1],[0.75,1],[0.5,1],[0.25,1],[0,1],[0,0.75],[0,0.5],[0,0.25]];outlineConnect=0;gradientColor=none;html=1;whiteSpace=wrap;fontSize=12;fontStyle=0;container=1;pointerEvents=0;collapsible=0;recursiveResize=0;shape=mxgraph.aws4.group;grIcon=mxgraph.aws4.group_security_group;grStroke=0;strokeColor=#7AA116;fillColor=#F2F6E8;verticalAlign=top;align=left;spacingLeft=30;fontColor=#248814;dashed=0;" vertex="1" parent="1C_koSMxwwufAkrPEQZf-1">
          <mxGeometry x="80" y="90" width="130" height="330" as="geometry" />
        </mxCell>
        <mxCell id="1C_koSMxwwufAkrPEQZf-26" value="" style="outlineConnect=0;dashed=0;verticalLabelPosition=bottom;verticalAlign=top;align=center;html=1;shape=mxgraph.aws3.application_load_balancer;fillColor=#006600;gradientColor=none;" vertex="1" parent="1C_koSMxwwufAkrPEQZf-8">
          <mxGeometry x="40" y="45" width="50" height="50" as="geometry" />
        </mxCell>
        <mxCell id="1C_koSMxwwufAkrPEQZf-33" value="" style="outlineConnect=0;dashed=0;verticalLabelPosition=bottom;verticalAlign=top;align=center;html=1;shape=mxgraph.aws3.vpc_nat_gateway;fillColor=#7F00FF;gradientColor=none;" vertex="1" parent="1C_koSMxwwufAkrPEQZf-8">
          <mxGeometry x="40.5" y="130" width="49.5" height="52" as="geometry" />
        </mxCell>
        <mxCell id="1C_koSMxwwufAkrPEQZf-50" value="" style="sketch=0;outlineConnect=0;fontColor=#232F3E;gradientColor=none;fillColor=#8C4FFF;strokeColor=none;dashed=0;verticalLabelPosition=bottom;verticalAlign=top;align=center;html=1;fontSize=12;fontStyle=0;aspect=fixed;pointerEvents=1;shape=mxgraph.aws4.route_table;" vertex="1" parent="1C_koSMxwwufAkrPEQZf-8">
          <mxGeometry y="120" width="30" height="29.23" as="geometry" />
        </mxCell>
        <mxCell id="1C_koSMxwwufAkrPEQZf-56" value="" style="rounded=1;arcSize=10;dashed=1;strokeColor=#FF9999;fillColor=none;gradientColor=none;dashPattern=8 4;strokeWidth=2;" vertex="1" parent="1C_koSMxwwufAkrPEQZf-8">
          <mxGeometry x="25" y="35" width="80" height="70" as="geometry" />
        </mxCell>
        <mxCell id="1C_koSMxwwufAkrPEQZf-69" value="" style="outlineConnect=0;dashed=0;verticalLabelPosition=bottom;verticalAlign=top;align=center;html=1;shape=mxgraph.aws3.ec2;fillColor=#F58534;gradientColor=none;" vertex="1" parent="1C_koSMxwwufAkrPEQZf-8">
          <mxGeometry x="45.25" y="217" width="40" height="53" as="geometry" />
        </mxCell>
        <mxCell id="1C_koSMxwwufAkrPEQZf-9" value="&lt;font color=&quot;#ffb570&quot;&gt;Private subnet&lt;/font&gt;" style="points=[[0,0],[0.25,0],[0.5,0],[0.75,0],[1,0],[1,0.25],[1,0.5],[1,0.75],[1,1],[0.75,1],[0.5,1],[0.25,1],[0,1],[0,0.75],[0,0.5],[0,0.25]];outlineConnect=0;gradientColor=none;html=1;whiteSpace=wrap;fontSize=12;fontStyle=0;container=1;pointerEvents=0;collapsible=0;recursiveResize=0;shape=mxgraph.aws4.group;grIcon=mxgraph.aws4.group_security_group;grStroke=0;strokeColor=#FFB570;fillColor=#F2F6E8;verticalAlign=top;align=left;spacingLeft=30;fontColor=#248814;dashed=0;" vertex="1" parent="1C_koSMxwwufAkrPEQZf-1">
          <mxGeometry x="270" y="90" width="130" height="330" as="geometry" />
        </mxCell>
        <mxCell id="1C_koSMxwwufAkrPEQZf-6" value="&lt;div&gt;&lt;font color=&quot;#9ac7bf&quot;&gt;backend&lt;/font&gt;&lt;/div&gt;&lt;div&gt;&lt;font color=&quot;#9ac7bf&quot;&gt;&lt;br&gt;&lt;/font&gt;&lt;/div&gt;" style="text;html=1;align=center;verticalAlign=middle;resizable=0;points=[];autosize=1;strokeColor=none;fillColor=none;" vertex="1" parent="1C_koSMxwwufAkrPEQZf-9">
          <mxGeometry x="30" y="280" width="70" height="40" as="geometry" />
        </mxCell>
        <mxCell id="1C_koSMxwwufAkrPEQZf-22" value="&lt;div&gt;&lt;font color=&quot;#67ab9f&quot;&gt;frontend&lt;/font&gt;&lt;/div&gt;&lt;div&gt;&lt;font color=&quot;#67ab9f&quot;&gt;&lt;br&gt;&lt;/font&gt;&lt;/div&gt;" style="text;html=1;align=center;verticalAlign=middle;resizable=0;points=[];autosize=1;strokeColor=none;fillColor=none;" vertex="1" parent="1C_koSMxwwufAkrPEQZf-9">
          <mxGeometry x="29.999999999999996" y="100" width="70" height="40" as="geometry" />
        </mxCell>
        <mxCell id="1C_koSMxwwufAkrPEQZf-25" value="" style="endArrow=classic;html=1;rounded=0;exitX=0.486;exitY=0;exitDx=0;exitDy=0;exitPerimeter=0;flowAnimation=1;strokeColor=#660066;" edge="1" parent="1C_koSMxwwufAkrPEQZf-9" source="1C_koSMxwwufAkrPEQZf-22">
          <mxGeometry width="50" height="50" relative="1" as="geometry">
            <mxPoint x="30" y="340" as="sourcePoint" />
            <mxPoint x="64.80399999999986" y="220" as="targetPoint" />
          </mxGeometry>
        </mxCell>
        <mxCell id="1C_koSMxwwufAkrPEQZf-49" value="" style="sketch=0;outlineConnect=0;fontColor=#232F3E;gradientColor=none;fillColor=#8C4FFF;strokeColor=none;dashed=0;verticalLabelPosition=bottom;verticalAlign=top;align=center;html=1;fontSize=12;fontStyle=0;aspect=fixed;pointerEvents=1;shape=mxgraph.aws4.route_table;" vertex="1" parent="1C_koSMxwwufAkrPEQZf-9">
          <mxGeometry y="120" width="30" height="29.23" as="geometry" />
        </mxCell>
        <mxCell id="1C_koSMxwwufAkrPEQZf-61" value="" style="sketch=0;points=[[0,0,0],[0.25,0,0],[0.5,0,0],[0.75,0,0],[1,0,0],[0,1,0],[0.25,1,0],[0.5,1,0],[0.75,1,0],[1,1,0],[0,0.25,0],[0,0.5,0],[0,0.75,0],[1,0.25,0],[1,0.5,0],[1,0.75,0]];outlineConnect=0;fontColor=#232F3E;fillColor=#67AB9F;strokeColor=#ffffff;dashed=0;verticalLabelPosition=bottom;verticalAlign=top;align=center;html=1;fontSize=12;fontStyle=0;aspect=fixed;shape=mxgraph.aws4.resourceIcon;resIcon=mxgraph.aws4.auto_scaling2;" vertex="1" parent="1C_koSMxwwufAkrPEQZf-9">
          <mxGeometry x="45" y="50" width="40" height="40" as="geometry" />
        </mxCell>
        <mxCell id="1C_koSMxwwufAkrPEQZf-53" value="" style="rounded=1;arcSize=10;dashed=1;strokeColor=#67AB9F;fillColor=none;gradientColor=none;dashPattern=8 4;strokeWidth=2;" vertex="1" parent="1C_koSMxwwufAkrPEQZf-9">
          <mxGeometry x="30" y="35" width="70" height="65" as="geometry" />
        </mxCell>
        <mxCell id="1C_koSMxwwufAkrPEQZf-10" value="&lt;font color=&quot;#ea6b66&quot;&gt;db subnet&lt;/font&gt;" style="points=[[0,0],[0.25,0],[0.5,0],[0.75,0],[1,0],[1,0.25],[1,0.5],[1,0.75],[1,1],[0.75,1],[0.5,1],[0.25,1],[0,1],[0,0.75],[0,0.5],[0,0.25]];outlineConnect=0;gradientColor=none;html=1;whiteSpace=wrap;fontSize=12;fontStyle=0;container=1;pointerEvents=0;collapsible=0;recursiveResize=0;shape=mxgraph.aws4.group;grIcon=mxgraph.aws4.group_security_group;grStroke=0;strokeColor=#CC99FF;fillColor=#F2F6E8;verticalAlign=top;align=left;spacingLeft=30;fontColor=#248814;dashed=0;" vertex="1" parent="1C_koSMxwwufAkrPEQZf-1">
          <mxGeometry x="450" y="90" width="130" height="330" as="geometry" />
        </mxCell>
        <mxCell id="1C_koSMxwwufAkrPEQZf-12" value="" style="outlineConnect=0;dashed=0;verticalLabelPosition=bottom;verticalAlign=top;align=center;html=1;shape=mxgraph.aws3.rds_db_instance;fillColor=#2E73B8;gradientColor=none;" vertex="1" parent="1C_koSMxwwufAkrPEQZf-10">
          <mxGeometry x="41" y="60" width="49.5" height="40" as="geometry" />
        </mxCell>
        <mxCell id="1C_koSMxwwufAkrPEQZf-13" value="" style="outlineConnect=0;dashed=0;verticalLabelPosition=bottom;verticalAlign=top;align=center;html=1;shape=mxgraph.aws3.rds_db_instance_read_replica;fillColor=#2E73B8;gradientColor=none;" vertex="1" parent="1C_koSMxwwufAkrPEQZf-10">
          <mxGeometry x="40.25" y="170" width="49.5" height="40" as="geometry" />
        </mxCell>
        <mxCell id="1C_koSMxwwufAkrPEQZf-51" value="" style="sketch=0;outlineConnect=0;fontColor=#232F3E;gradientColor=none;fillColor=#8C4FFF;strokeColor=none;dashed=0;verticalLabelPosition=bottom;verticalAlign=top;align=center;html=1;fontSize=12;fontStyle=0;aspect=fixed;pointerEvents=1;shape=mxgraph.aws4.route_table;" vertex="1" parent="1C_koSMxwwufAkrPEQZf-10">
          <mxGeometry y="120" width="30" height="29.23" as="geometry" />
        </mxCell>
        <mxCell id="1C_koSMxwwufAkrPEQZf-55" value="" style="rounded=1;arcSize=10;dashed=1;strokeColor=#FF9999;fillColor=none;gradientColor=none;dashPattern=8 4;strokeWidth=2;" vertex="1" parent="1C_koSMxwwufAkrPEQZf-10">
          <mxGeometry x="25" y="45" width="80" height="70" as="geometry" />
        </mxCell>
        <mxCell id="1C_koSMxwwufAkrPEQZf-16" value="" style="endArrow=classic;html=1;rounded=0;entryX=0;entryY=0.5;entryDx=0;entryDy=0;entryPerimeter=0;flowAnimation=1;strokeColor=#660066;" edge="1" parent="1C_koSMxwwufAkrPEQZf-1" target="1C_koSMxwwufAkrPEQZf-12">
          <mxGeometry width="50" height="50" relative="1" as="geometry">
            <mxPoint x="360" y="350" as="sourcePoint" />
            <mxPoint x="410" y="300" as="targetPoint" />
            <Array as="points">
              <mxPoint x="420" y="350" />
              <mxPoint x="420" y="170" />
            </Array>
          </mxGeometry>
        </mxCell>
        <mxCell id="1C_koSMxwwufAkrPEQZf-19" value="" style="endArrow=classic;html=1;rounded=0;entryX=0.5;entryY=0.02;entryDx=0;entryDy=0;entryPerimeter=0;strokeColor=#6787B8;flowAnimation=1;" edge="1" parent="1C_koSMxwwufAkrPEQZf-1" target="1C_koSMxwwufAkrPEQZf-13">
          <mxGeometry width="50" height="50" relative="1" as="geometry">
            <mxPoint x="515" y="190" as="sourcePoint" />
            <mxPoint x="350" y="250" as="targetPoint" />
            <Array as="points">
              <mxPoint x="515" y="260" />
            </Array>
          </mxGeometry>
        </mxCell>
        <mxCell id="1C_koSMxwwufAkrPEQZf-29" value="" style="endArrow=classic;html=1;rounded=0;exitX=1;exitY=0.5;exitDx=0;exitDy=0;exitPerimeter=0;strokeColor=#990099;flowAnimation=1;" edge="1" parent="1C_koSMxwwufAkrPEQZf-1">
          <mxGeometry width="50" height="50" relative="1" as="geometry">
            <mxPoint x="170" y="160" as="sourcePoint" />
            <mxPoint x="310" y="160" as="targetPoint" />
            <Array as="points">
              <mxPoint x="310" y="160" />
            </Array>
          </mxGeometry>
        </mxCell>
        <mxCell id="1C_koSMxwwufAkrPEQZf-32" value="&lt;font color=&quot;#f19c99&quot;&gt;az-1&lt;/font&gt;" style="text;html=1;align=center;verticalAlign=middle;resizable=0;points=[];autosize=1;strokeColor=none;fillColor=none;" vertex="1" parent="1C_koSMxwwufAkrPEQZf-1">
          <mxGeometry x="310" y="30" width="50" height="30" as="geometry" />
        </mxCell>
        <mxCell id="1C_koSMxwwufAkrPEQZf-31" value="&lt;font color=&quot;#496082&quot;&gt;az-2&lt;/font&gt;" style="text;html=1;align=center;verticalAlign=middle;resizable=0;points=[];autosize=1;strokeColor=none;fillColor=none;" vertex="1" parent="1C_koSMxwwufAkrPEQZf-1">
          <mxGeometry x="310" y="440" width="50" height="30" as="geometry" />
        </mxCell>
        <mxCell id="1C_koSMxwwufAkrPEQZf-52" value="" style="endArrow=classic;html=1;rounded=0;exitX=1;exitY=0.5;exitDx=0;exitDy=0;exitPerimeter=0;strokeColor=#9933FF;flowAnimation=1;" edge="1" parent="1C_koSMxwwufAkrPEQZf-1" source="1C_koSMxwwufAkrPEQZf-33" target="1C_koSMxwwufAkrPEQZf-49">
          <mxGeometry width="50" height="50" relative="1" as="geometry">
            <mxPoint x="205" y="320" as="sourcePoint" />
            <mxPoint x="255" y="270" as="targetPoint" />
            <Array as="points">
              <mxPoint x="225" y="260" />
            </Array>
          </mxGeometry>
        </mxCell>
        <mxCell id="1C_koSMxwwufAkrPEQZf-60" value="" style="endArrow=classic;html=1;rounded=0;flowAnimation=1;strokeColor=#9933FF;" edge="1" parent="1C_koSMxwwufAkrPEQZf-1">
          <mxGeometry width="50" height="50" relative="1" as="geometry">
            <mxPoint x="225" y="260" as="sourcePoint" />
            <mxPoint x="450" y="230" as="targetPoint" />
          </mxGeometry>
        </mxCell>
        <mxCell id="1C_koSMxwwufAkrPEQZf-64" value="" style="sketch=0;points=[[0,0,0],[0.25,0,0],[0.5,0,0],[0.75,0,0],[1,0,0],[0,1,0],[0.25,1,0],[0.5,1,0],[0.75,1,0],[1,1,0],[0,0.25,0],[0,0.5,0],[0,0.75,0],[1,0.25,0],[1,0.5,0],[1,0.75,0]];outlineConnect=0;fontColor=#232F3E;fillColor=#67AB9F;strokeColor=#ffffff;dashed=0;verticalLabelPosition=bottom;verticalAlign=top;align=center;html=1;fontSize=12;fontStyle=0;aspect=fixed;shape=mxgraph.aws4.resourceIcon;resIcon=mxgraph.aws4.auto_scaling2;" vertex="1" parent="1C_koSMxwwufAkrPEQZf-1">
          <mxGeometry x="310" y="310" width="50" height="50" as="geometry" />
        </mxCell>
        <mxCell id="1C_koSMxwwufAkrPEQZf-54" value="" style="rounded=1;arcSize=10;dashed=1;strokeColor=#67AB9F;fillColor=none;gradientColor=none;dashPattern=8 4;strokeWidth=2;" vertex="1" parent="1C_koSMxwwufAkrPEQZf-1">
          <mxGeometry x="300" y="300" width="70" height="70" as="geometry" />
        </mxCell>
        <mxCell id="1C_koSMxwwufAkrPEQZf-67" value="" style="endArrow=classic;html=1;rounded=0;flowAnimation=1;strokeColor=#7F00FF;" edge="1" parent="1C_koSMxwwufAkrPEQZf-1" source="1C_koSMxwwufAkrPEQZf-48">
          <mxGeometry width="50" height="50" relative="1" as="geometry">
            <mxPoint x="30" y="270" as="sourcePoint" />
            <mxPoint x="80" y="220" as="targetPoint" />
            <Array as="points">
              <mxPoint x="15" y="180" />
              <mxPoint x="15" y="240" />
            </Array>
          </mxGeometry>
        </mxCell>
        <mxCell id="1C_koSMxwwufAkrPEQZf-70" value="" style="rounded=1;arcSize=10;dashed=1;strokeColor=#FF9999;fillColor=none;gradientColor=none;dashPattern=8 4;strokeWidth=2;" vertex="1" parent="1C_koSMxwwufAkrPEQZf-1">
          <mxGeometry x="110" y="300" width="70" height="70" as="geometry" />
        </mxCell>
        <mxCell id="1C_koSMxwwufAkrPEQZf-48" value="" style="sketch=0;outlineConnect=0;fontColor=#232F3E;gradientColor=none;fillColor=#8C4FFF;strokeColor=none;dashed=0;verticalLabelPosition=bottom;verticalAlign=top;align=center;html=1;fontSize=12;fontStyle=0;aspect=fixed;pointerEvents=1;shape=mxgraph.aws4.internet_gateway;" vertex="1" parent="1C_koSMxwwufAkrPEQZf-1">
          <mxGeometry x="-30" y="30" width="53" height="53" as="geometry" />
        </mxCell>
        <mxCell id="1C_koSMxwwufAkrPEQZf-34" value="" style="outlineConnect=0;dashed=0;verticalLabelPosition=bottom;verticalAlign=top;align=center;html=1;shape=mxgraph.aws3.cloudfront;fillColor=#496082;gradientColor=none;" vertex="1" parent="1">
          <mxGeometry x="55" y="220" width="40" height="40" as="geometry" />
        </mxCell>
        <mxCell id="1C_koSMxwwufAkrPEQZf-35" value="" style="endArrow=classic;html=1;rounded=0;entryX=0;entryY=0.5;entryDx=0;entryDy=0;entryPerimeter=0;exitX=1;exitY=0.5;exitDx=0;exitDy=0;exitPerimeter=0;strokeColor=#990099;flowAnimation=1;" edge="1" parent="1" source="1C_koSMxwwufAkrPEQZf-34" target="1C_koSMxwwufAkrPEQZf-26">
          <mxGeometry width="50" height="50" relative="1" as="geometry">
            <mxPoint x="110" y="230" as="sourcePoint" />
            <mxPoint x="160" y="180" as="targetPoint" />
          </mxGeometry>
        </mxCell>
        <mxCell id="1C_koSMxwwufAkrPEQZf-38" value="" style="edgeStyle=orthogonalEdgeStyle;rounded=0;orthogonalLoop=1;jettySize=auto;html=1;strokeColor=#990099;flowAnimation=1;" edge="1" parent="1" source="1C_koSMxwwufAkrPEQZf-37" target="1C_koSMxwwufAkrPEQZf-34">
          <mxGeometry relative="1" as="geometry">
            <Array as="points">
              <mxPoint x="45" y="240" />
            </Array>
          </mxGeometry>
        </mxCell>
        <mxCell id="1C_koSMxwwufAkrPEQZf-37" value="" style="outlineConnect=0;dashed=0;verticalLabelPosition=bottom;verticalAlign=top;align=center;html=1;shape=mxgraph.aws3.route_53;fillColor=#F19C99;gradientColor=none;" vertex="1" parent="1">
          <mxGeometry x="10" y="10" width="70.5" height="70" as="geometry" />
        </mxCell>
        <mxCell id="1C_koSMxwwufAkrPEQZf-39" value="&lt;font color=&quot;#660066&quot; style=&quot;font-size: 17px;&quot;&gt;expense.ullagallu.cloud&lt;/font&gt;" style="text;html=1;align=center;verticalAlign=middle;resizable=0;points=[];autosize=1;strokeColor=none;fillColor=none;" vertex="1" parent="1">
          <mxGeometry x="500" y="20" width="200" height="30" as="geometry" />
        </mxCell>
        <mxCell id="1C_koSMxwwufAkrPEQZf-44" value="" style="verticalLabelPosition=bottom;html=1;verticalAlign=top;align=center;strokeColor=none;fillColor=#6787B8;shape=mxgraph.azure.laptop;pointerEvents=1;" vertex="1" parent="1">
          <mxGeometry x="475" y="5.75" width="250" height="60" as="geometry" />
        </mxCell>
        <mxCell id="1C_koSMxwwufAkrPEQZf-45" value="" style="endArrow=classic;html=1;rounded=0;exitX=0.08;exitY=0.5;exitDx=0;exitDy=0;exitPerimeter=0;flowAnimation=1;fillColor=#e1d5e7;strokeColor=#990099;" edge="1" parent="1" source="1C_koSMxwwufAkrPEQZf-46" target="1C_koSMxwwufAkrPEQZf-37">
          <mxGeometry width="50" height="50" relative="1" as="geometry">
            <mxPoint x="115" y="50" as="sourcePoint" />
            <mxPoint x="61" y="40" as="targetPoint" />
          </mxGeometry>
        </mxCell>
        <mxCell id="1C_koSMxwwufAkrPEQZf-47" value="" style="endArrow=classic;html=1;rounded=0;exitX=0.08;exitY=0.5;exitDx=0;exitDy=0;exitPerimeter=0;flowAnimation=1;fillColor=#f8cecc;strokeColor=#A100A1;" edge="1" parent="1" source="1C_koSMxwwufAkrPEQZf-44" target="1C_koSMxwwufAkrPEQZf-46">
          <mxGeometry width="50" height="50" relative="1" as="geometry">
            <mxPoint x="185" y="40" as="sourcePoint" />
            <mxPoint x="61" y="40" as="targetPoint" />
          </mxGeometry>
        </mxCell>
        <mxCell id="1C_koSMxwwufAkrPEQZf-46" value="" style="image;aspect=fixed;perimeter=ellipsePerimeter;html=1;align=center;shadow=0;dashed=0;spacingTop=3;image=img/lib/active_directory/internet_cloud.svg;" vertex="1" parent="1">
          <mxGeometry x="190" y="20" width="50" height="31.5" as="geometry" />
        </mxCell>
        <mxCell id="1C_koSMxwwufAkrPEQZf-68" value="" style="sketch=0;outlineConnect=0;fontColor=#232F3E;gradientColor=none;fillColor=#8C4FFF;strokeColor=none;dashed=0;verticalLabelPosition=bottom;verticalAlign=top;align=center;html=1;fontSize=12;fontStyle=0;aspect=fixed;pointerEvents=1;shape=mxgraph.aws4.flow_logs;" vertex="1" parent="1">
          <mxGeometry x="670" y="60" width="40" height="40" as="geometry" />
        </mxCell>
      </root>
    </mxGraphModel>
  </diagram>
</mxfile>
